<svg xmlns="http://www.w3.org/2000/svg" id="Layer_2" viewBox="0 0 401.43 116.56">
  <defs>
    <style>
      .cls-1{fill:hsl(208, 100%, 44%)}.cls-2{fill:hsl(228, 25%, 25%)}
    </style>
  </defs>
  <g id="Layer_1-2">
    <path d="M125.51 48.58a17.28 17.28 0 0 1 6.61-6.64 18.62 18.62 0 0 1 9.39-2.38c4.06 0 7.62 1.05 10.67 3.14a16.4 16.4 0 0 1 6.4 8.68h-8.38a8.69 8.69 0 0 0-3.51-3.92 10.28 10.28 0 0 0-5.23-1.31c-2.12 0-4 .5-5.65 1.49-1.65.99-2.93 2.4-3.85 4.21s-1.38 3.94-1.38 6.38.46 4.52 1.38 6.35a10.16 10.16 0 0 0 9.5 5.73c1.98 0 3.72-.44 5.23-1.33a8.82 8.82 0 0 0 3.51-3.95h8.38a16.36 16.36 0 0 1-6.38 8.71 18.46 18.46 0 0 1-10.7 3.11c-3.47 0-6.6-.79-9.39-2.38-2.79-1.59-5-3.79-6.61-6.62s-2.42-6.03-2.42-9.62.81-6.81 2.42-9.65ZM167.53 75.15a13.3 13.3 0 0 1-5.23-5.26c-1.27-2.27-1.9-4.88-1.9-7.84s.65-5.58 1.95-7.85a13.61 13.61 0 0 1 5.33-5.26c2.26-1.24 4.77-1.86 7.55-1.86s5.29.62 7.55 1.86a13.61 13.61 0 0 1 5.33 5.26c1.3 2.27 1.95 4.88 1.95 7.85s-.67 5.58-2 7.84a13.94 13.94 0 0 1-5.41 5.26c-2.27 1.24-4.81 1.86-7.62 1.86s-5.27-.62-7.49-1.86Zm11.22-5.49a6.96 6.96 0 0 0 2.78-2.9 9.87 9.87 0 0 0 1.04-4.71c0-2.75-.72-4.87-2.16-6.36-1.44-1.48-3.2-2.22-5.28-2.22s-3.83.74-5.23 2.22c-1.4 1.48-2.11 3.6-2.11 6.36s.68 4.87 2.06 6.35a6.76 6.76 0 0 0 5.18 2.22c1.32 0 2.56-.32 3.72-.97ZM217.13 50.41c2.12 2.18 3.18 5.22 3.18 9.13v17h-7.29V60.53c0-2.3-.57-4.07-1.72-5.31-1.15-1.24-2.71-1.86-4.68-1.86s-3.6.62-4.76 1.86c-1.16 1.24-1.74 3.01-1.74 5.31v16.01h-7.29V47.56h7.29v3.61a9.95 9.95 0 0 1 3.72-2.95 11.55 11.55 0 0 1 4.97-1.07c3.44 0 6.21 1.09 8.33 3.27ZM233.11 53.57v14.02c0 .98.23 1.68.7 2.12.47.44 1.26.65 2.37.65h3.38v6.17h-4.58c-6.14 0-9.21-3-9.21-9V53.56h-3.44v-6.02h3.44v-7.17h7.34v7.17h6.45v6.02h-6.45ZM268.81 64.24h-21.08a7.2 7.2 0 0 0 2.19 4.92 6.7 6.7 0 0 0 4.74 1.78c2.71 0 4.63-1.17 5.78-3.5h7.86c-.83 2.79-2.43 5.08-4.79 6.88s-5.26 2.69-8.69 2.69c-2.78 0-5.27-.62-7.47-1.86a13.04 13.04 0 0 1-5.15-5.26c-1.23-2.27-1.85-4.88-1.85-7.84s.61-5.63 1.82-7.9a12.67 12.67 0 0 1 5.1-5.23c2.18-1.22 4.7-1.83 7.55-1.83s5.2.59 7.36 1.78a12.53 12.53 0 0 1 5.05 5.05 15.3 15.3 0 0 1 1.8 7.51c0 1.05-.07 1.99-.21 2.82Zm-7.34-4.92a5.83 5.83 0 0 0-2.03-4.53 7.18 7.18 0 0 0-4.84-1.7c-1.8 0-3.32.55-4.55 1.65a7.22 7.22 0 0 0-2.26 4.58h13.69Z" class="cls-2"/>
    <path d="m285.84 76.54-5.93-9-5.26 9h-7.81L276.26 62l-9.52-14.44h8.22l5.88 8.94 5.31-8.94h7.81L284.49 62l9.58 14.54h-8.22ZM306.31 53.57v14.02c0 .98.23 1.68.7 2.12.47.44 1.26.65 2.37.65h3.38v6.17h-4.58c-6.14 0-9.21-3-9.21-9V53.56h-3.44v-6.02h3.44v-7.17h7.34v7.17h6.45v6.02h-6.45ZM343.04 47.56v28.98h-7.34v-3.66a9.67 9.67 0 0 1-3.67 2.96 11.42 11.42 0 0 1-4.92 1.07c-2.26 0-4.25-.48-5.99-1.44a10.1 10.1 0 0 1-4.09-4.24 14.06 14.06 0 0 1-1.48-6.67v-17h7.29v15.95c0 2.3.57 4.07 1.72 5.31 1.15 1.24 2.71 1.86 4.68 1.86s3.59-.62 4.74-1.86c1.15-1.24 1.72-3.01 1.72-5.31V47.56h7.34ZM357.28 48.45a10.2 10.2 0 0 1 5.18-1.31v7.69h-1.93c-2.29 0-4.02.54-5.18 1.62-1.16 1.08-1.74 2.96-1.74 5.65v14.44h-7.29V47.56h7.29v4.5a10.31 10.31 0 0 1 3.67-3.61ZM391.34 64.24h-21.08a7.2 7.2 0 0 0 2.19 4.92 6.7 6.7 0 0 0 4.74 1.78c2.71 0 4.63-1.17 5.78-3.5h7.86c-.83 2.79-2.43 5.08-4.79 6.88s-5.26 2.69-8.69 2.69c-2.78 0-5.27-.62-7.47-1.86a13.04 13.04 0 0 1-5.15-5.26c-1.23-2.27-1.85-4.88-1.85-7.84s.61-5.63 1.82-7.9a12.67 12.67 0 0 1 5.1-5.23c2.18-1.22 4.7-1.83 7.55-1.83s5.2.59 7.36 1.78a12.53 12.53 0 0 1 5.05 5.05 15.3 15.3 0 0 1 1.8 7.51c0 1.05-.07 1.99-.21 2.82ZM384 59.32a5.83 5.83 0 0 0-2.03-4.53 7.18 7.18 0 0 0-4.84-1.7c-1.8 0-3.32.55-4.55 1.65a7.22 7.22 0 0 0-2.26 4.58h13.69ZM38.1 0a4.07 4.07 0 0 0-4.07 4.07v24.24L14.66 14.74a4.07 4.07 0 0 0-4.67 6.67l21.02 14.72-10.74 7.52-13.85-9.7a4.07 4.07 0 0 0-4.67 6.67l11.42 8-9.21 6.45a4.07 4.07 0 0 0 4.67 6.67l11.64-8.15 10.74 7.52-15.02 10.52a4.07 4.07 0 0 0 4.67 6.67l13.38-9.37v43.55a4.07 4.07 0 1 0 8.14 0V4.07A4.07 4.07 0 0 0 38.11 0Zm-4.07 53.29-6.66-4.66 6.66-4.66v9.33Z" class="cls-2"/>
    <path d="M86.36 39.28a4.07 4.07 0 1 0-1.51-3.15c0 .15.03.3.05.45L70.37 46.75 56.5 37.03a3.9 3.9 0 0 0 0-1.82l21.75-15.23a4.02 4.02 0 0 0 6.02-3.55 4.07 4.07 0 1 0-7.95 1.18l-21.57 15.1a4.42 4.42 0 0 0-.68-.36V7.85a4.08 4.08 0 0 0 2.55-3.77C56.59 1.82 54.76 0 52.51 0a4.07 4.07 0 0 0-1.52 7.84v24.51a4.07 4.07 0 0 0 0 7.54v17.44a4.08 4.08 0 0 0 0 7.54v43.83a4.07 4.07 0 1 0 3.04 0V64.87a4 4 0 0 0 .68-.36l15.3 10.72a4.07 4.07 0 1 0 1.85-2.42L56.45 62.02a3.9 3.9 0 0 0 0-1.82l13.87-9.72 12.13 8.49a4.07 4.07 0 1 0 1.75-2.5l-11.21-7.85 13.34-9.34ZM54.73 57.7a4.42 4.42 0 0 0-.68-.36V39.9a4 4 0 0 0 .68-.36l12.96 9.08-12.96 9.08Z" class="cls-1"/>
    <circle cx="396.7" cy="72.17" r="4.73" class="cls-1"/>
  </g>
</svg>
