<svg xmlns="http://www.w3.org/2000/svg" viewBox="249 191.02 94.48 117.74">
  <g>
    <path d="M38.1 0a4.07 4.07 0 0 0-4.07 4.07v24.24L14.66 14.74a4.07 4.07 0 0 0-4.67 6.67l21.02 14.72-10.74 7.52-13.85-9.7a4.07 4.07 0 0 0-4.67 6.67l11.42 8-9.21 6.45a4.07 4.07 0 0 0 4.67 6.67l11.64-8.15 10.74 7.52-15.02 10.52a4.07 4.07 0 0 0 4.67 6.67l13.38-9.37v43.55a4.07 4.07 0 0 0 8.14 0V4.07A4.07 4.07 0 0 0 38.11 0h-.01Zm-4.07 53.29-6.66-4.66 6.66-4.66v9.33-.01Z" class="cls-2" style="fill:#272c41" transform="matrix(1.005 0 0 1 249.56 191.73)"/>
    <path d="M86.36 39.28a4.07 4.07 0 1 0-1.51-3.15c0 .15.03.3.05.45L70.37 46.75 56.5 37.03a3.9 3.9 0 0 0 0-1.82l21.75-15.23a4.02 4.02 0 0 0 6.02-3.55 4.07 4.07 0 1 0-7.95 1.18l-21.57 15.1a4.42 4.42 0 0 0-.68-.36V7.85a4.08 4.08 0 0 0 2.55-3.77A4.12 4.12 0 0 0 52.51 0a4.07 4.07 0 0 0-1.52 7.84v24.51a4.07 4.07 0 0 0 0 7.54v17.44a4.08 4.08 0 0 0 0 7.54v43.83a4.07 4.07 0 1 0 3.04 0V64.87a4 4 0 0 0 .68-.36l15.3 10.72a4.07 4.07 0 1 0 1.85-2.42L56.45 62.02a3.9 3.9 0 0 0 0-1.82l13.87-9.72 12.13 8.49a4.07 4.07 0 1 0 1.75-2.5l-11.21-7.85 13.34-9.34ZM54.73 57.7a4.42 4.42 0 0 0-.68-.36V39.9a4 4 0 0 0 .68-.36l12.96 9.08-12.96 9.08Z" class="cls-1" style="fill:#0076de" transform="matrix(1.005 0 0 1 249.56 191.73)"/>
  </g>
</svg>
